<?xml version="1.0" encoding="UTF-8" standalone="no"?>
<svg
   xmlns:dc="http://purl.org/dc/elements/1.1/"
   xmlns:cc="http://creativecommons.org/ns#"
   xmlns:rdf="http://www.w3.org/1999/02/22-rdf-syntax-ns#"
   xmlns:svg="http://www.w3.org/2000/svg"
   xmlns="http://www.w3.org/2000/svg"
   xmlns:sodipodi="http://sodipodi.sourceforge.net/DTD/sodipodi-0.dtd"
   xmlns:inkscape="http://www.inkscape.org/namespaces/inkscape"
   width="800"
   height="400"
   viewBox="0 0 211.66666 105.83334"
   version="1.1"
   id="svg853"
   inkscape:version="1.0.2-2 (e86c870879, 2021-01-15)"
   sodipodi:docname="refisz_logo.svg"
   inkscape:export-filename="C:\Users\fodor\OneDrive - Óbudai egyetem (1)\Refisz Média\Assets\refisz_logo_web_60.png"
   inkscape:export-xdpi="14.4"
   inkscape:export-ydpi="14.4">
  <defs
     id="defs847" />
  <sodipodi:namedview
     id="base"
     pagecolor="#ffffff"
     bordercolor="#666666"
     borderopacity="1.0"
     inkscape:pageopacity="0.0"
     inkscape:pageshadow="2"
     inkscape:zoom="0.7"
     inkscape:cx="270.61667"
     inkscape:cy="257.38579"
     inkscape:document-units="mm"
     inkscape:current-layer="layer1"
     inkscape:document-rotation="0"
     showgrid="false"
     units="px"
     inkscape:window-width="1920"
     inkscape:window-height="1009"
     inkscape:window-x="-8"
     inkscape:window-y="-8"
     inkscape:window-maximized="1" />
  <metadata
     id="metadata850">
    <rdf:RDF>
      <cc:Work
         rdf:about="">
        <dc:format>image/svg+xml</dc:format>
        <dc:type
           rdf:resource="http://purl.org/dc/dcmitype/StillImage" />
        <dc:title />
      </cc:Work>
    </rdf:RDF>
  </metadata>
  <g
     inkscape:label="Layer 1"
     inkscape:groupmode="layer"
     id="layer1">
    <path
       style="fill:#000000;stroke-width:0.9754"
       d="m 89.534824,99.244717 c -2.95967,-1.474865 -4.96246,-5.159427 -6.15989,-11.3325 -0.35149,-1.812027 -0.45295,-3.726808 -0.46143,-8.709629 -0.005,-3.51282 -0.089,-6.387112 -0.18469,-6.387346 -0.0955,-2.08e-4 -1.02465,0.456278 -2.06462,1.014399 -7.164915,3.845248 -14.34656,4.283083 -19.211149,1.171235 -2.117843,-1.35476 -3.63381,-3.115749 -4.891358,-5.68191 -0.629242,-1.284003 -1.14405,-2.524877 -1.14405,-2.75749 0,-0.232561 -0.109778,-0.711419 -0.243748,-1.064033 l -0.243747,-0.641105 -1.885385,0.656193 c -1.616692,0.562673 -2.186883,0.637436 -4.00133,0.524641 -5.136275,-0.31929 -7.641121,-3.420576 -8.855513,-10.963965 -0.165446,-1.028576 -0.409193,-1.93697 -0.541368,-2.018653 -0.341454,-0.21097 -0.3824,-0.105095 -5.395745,13.953653 -3.11986,8.749014 -3.927165,10.036191 -6.27234,10.000735 -4.648964,-0.07024 -5.610633,-5.008081 -3.631469,-18.646215 1.162104,-8.007861 3.42016,-16.664267 4.729059,-18.129195 0.706373,-0.790552 0.818621,-0.824916 2.69446,-0.824916 1.195453,0 2.079889,0.122524 2.272051,0.314634 0.501802,0.501802 0.625106,2.729682 0.385755,6.968619 -0.122524,2.168439 -0.145676,4.142713 -0.05151,4.387267 0.122264,0.317495 0.639102,-0.491345 1.807605,-2.82921 1.952459,-3.906224 2.752272,-5.110938 4.442634,-6.691497 1.541902,-1.44175 1.991521,-1.694264 3.649782,-2.049921 1.803573,-0.386796 3.147772,0.01301 4.15905,1.241211 1.01354,1.229636 1.030917,2.415907 0.09911,6.776795 -1.625458,7.608267 -0.523679,10.612991 3.611074,9.848088 0.826711,-0.15296 1.910619,-0.486714 2.408674,-0.741777 0.837403,-0.428834 0.980322,-0.689802 1.898601,-3.467219 2.119768,-6.411382 4.526725,-9.783053 8.770839,-12.286131 2.903323,-1.712343 7.953675,-1.822953 11.006211,-0.241146 1.431761,0.741933 3.160027,2.518244 3.883227,3.991158 0.65375,1.331453 0.72406,1.737733 0.72406,4.184413 0,2.46619 -0.0676,2.848954 -0.75158,4.258213 -2.803015,5.775039 -7.760369,10.114987 -13.700594,11.994285 -0.567746,0.179754 -1.125529,0.411613 -1.239495,0.515511 -0.316611,0.288699 1.381529,2.342002 2.400845,2.902984 1.851125,1.018822 5.900658,0.257014 10.193934,-1.917694 2.26519,-1.147407 6.06179,-3.510297 6.06978,-3.777639 0.0265,-0.890704 1.24009,-10.651022 1.5451,-12.427228 0.13397,-0.780668 0.48856,-2.871066 0.78782,-4.645348 3.08006,-18.261734 7.97217,-30.983202 13.913426,-36.1804527 0.75549,-0.6609008 2.13574,-1.5877643 3.06719,-2.0597025 1.57491,-0.7979662 1.866,-0.8572251 4.15572,-0.8459352 2.14294,0.010405 2.63247,0.1004123 3.77576,0.6931315 3.33746,1.7301626 4.89258,5.3689409 4.25528,9.9567199 -0.66278,4.771123 -2.34984,9.564487 -5.96637,16.951951 -2.15549,4.403005 -2.75125,5.494222 -5.21325,9.548749 -1.6092,2.650106 -3.46647,5.413138 -5.659146,8.41898 -0.68569,0.939974 -1.24673,1.773709 -1.24673,1.852738 0,0.413069 3.178936,0.748436 5.612136,0.592095 4.31979,-0.277539 8.80354,-1.816242 12.05636,-4.137406 l 1.61815,-1.154691 0.69989,-2.656818 c 1.09015,-4.138368 1.34776,-4.720994 2.41221,-5.456086 1.47885,-1.021241 2.80213,-1.481421 4.72316,-1.642471 1.97399,-0.165446 2.90038,0.212531 3.33736,1.361915 0.31375,0.825202 -0.16623,3.284187 -1.55801,7.983226 -0.58858,1.987177 -1.39651,4.716313 -1.79538,6.064752 -1.26746,4.284877 -1.88166,7.680923 -1.91369,10.581019 -0.0424,3.841216 0.54746,4.576542 3.0984,3.862339 3.72879,-1.044002 8.94373,-6.306053 16.99956,-17.15314 4.92203,-6.627451 8.49411,-11.015472 9.56956,-11.755402 1.58178,-1.088277 3.33197,-1.441204 5.31681,-1.072097 1.93801,0.360418 2.91935,1.186167 3.15407,2.653982 0.25701,1.608237 -0.68322,3.331766 -3.5795,6.560467 -1.47942,1.649208 -1.48948,2.220232 -0.12642,7.157321 0.70338,2.547639 0.76477,3.108518 0.76477,6.985398 v 4.215343 l 4.95371,-2.421785 c 7.55445,-3.693303 7.39085,-3.557798 12.07919,-10.003753 2.2001,-3.024858 4.03349,-5.662347 4.07425,-5.861091 0.0447,-0.217734 -0.46,-0.611371 -1.27016,-0.990597 -1.04559,-0.489497 -1.73417,-0.622505 -3.09973,-0.598858 -2.49598,0.04318 -3.08357,0.369809 -4.59194,2.551723 -1.44784,2.094378 -2.70809,3.290612 -3.33871,3.169155 -0.87216,-0.168048 -1.16414,-1.424763 -0.83322,-3.586543 0.83795,-5.473853 3.28266,-9.115363 6.82591,-10.167586 2.29055,-0.680229 3.26189,-0.527659 6.17742,0.970306 l 2.63707,1.354891 h 4.875 4.87502 l 0.54454,0.72864 c 0.44772,0.599041 0.54457,1.095042 0.54457,2.789045 0,1.892409 -0.0525,2.101142 -0.64519,2.56023 -0.35485,0.274911 -1.05165,0.618316 -1.54846,0.763134 -0.72203,0.21045 -1.17194,0.66384 -2.2425,2.259721 -1.63131,2.431852 -6.9618,9.675747 -10.15754,13.80371 -1.36694,1.765671 -2.31178,3.220194 -2.26147,3.481422 0.0583,0.3022 0.75931,0.681582 2.14797,1.162287 3.95596,1.369406 6.99679,0.681191 10.73484,-2.429642 2.87119,-2.38945 4.02463,-3.053213 5.30562,-3.053213 1.43457,0 1.95911,0.27421 2.64381,1.382101 0.81745,1.32266 0.73665,3.17298 -0.19432,4.450376 -1.97989,2.716597 -5.84335,5.197407 -10.62173,6.82042 -1.80758,0.613972 -5.117,1.283145 -6.34583,1.283145 -1.10131,0 -5.00881,-1.286553 -7.09585,-2.336305 -1.29077,-0.64922 -1.56022,-0.697996 -2.58075,-0.466943 -1.76476,0.399516 -3.21172,0.07284 -4.38938,-0.991195 l -1.01606,-0.917941 -1.48007,0.647452 c -10.76772,4.710407 -21.31367,5.297923 -25.5189,1.421693 -0.61165,-0.563818 -1.40561,-1.64554 -1.76434,-2.403836 l -0.65224,-1.378719 -1.48254,0.977304 c -5.41332,3.568542 -11.28677,5.520782 -14.85994,4.939223 -2.88183,-0.469025 -4.49176,-1.946908 -5.25195,-4.821251 -0.48433,-1.831226 -0.34781,-4.689024 0.44613,-9.338872 0.29913,-1.751806 0.49613,-3.23281 0.43781,-3.291133 -0.0583,-0.05827 -0.73564,0.110558 -1.50512,0.375324 -2.07997,0.715607 -5.96177,1.527387 -8.87955,1.856927 -1.41941,0.160243 -2.61195,0.321657 -2.65011,0.358519 -0.0382,0.03694 0.32603,0.868124 0.80931,1.847197 1.87394,3.796343 3.06684,7.303076 3.7061,10.894509 0.37233,2.091777 0.38635,2.779732 0.10796,5.290536 -1.10961,10.008903 -4.32832,16.874665 -8.931996,19.052599 -2.15561,1.019785 -4.83491,1.047145 -6.797,0.06946 z m 5.31431,-8.252649 c 0.79656,-0.557939 1.49908,-2.029136 2.04199,-4.276241 0.38198,-1.581078 0.45456,-2.984797 0.4319,-8.352359 -0.0362,-8.568661 -0.77786,-13.839505 -2.43771,-17.324881 -0.69841,-1.466489 -1.8602,-2.670475 -2.14,-2.217735 -0.54486,0.8816 -1.44943,12.253744 -1.45182,18.252265 -0.002,4.010955 0.40888,10.077917 0.80322,11.871397 0.51614,2.347412 1.393,2.999729 2.75242,2.047554 z M 146.13082,70.520585 c 1.19652,-0.552242 2.02727,-1.384052 2.47683,-2.480082 0.53565,-1.305933 0.41859,-11.484314 -0.13215,-11.484314 -0.0895,0 -6.66316,6.713062 -8.68416,8.868052 l -1.66086,1.77103 1.5052,1.371747 c 2.59126,2.361564 4.4196,2.911491 6.49509,1.953567 z M 65.818226,58.861719 c 3.748477,-1.040933 8.172397,-5.629232 8.178432,-8.482348 0.0026,-1.510192 -0.875617,-3.323364 -1.712577,-3.533424 -1.754745,-0.440409 -4.404228,0.869894 -5.569271,2.754317 -1.168036,1.889236 -2.522536,6.172526 -2.522536,7.976827 0,1.70865 0.02601,1.728992 1.625952,1.284628 z M 96.926344,42.942793 c 0.70504,-1.241992 2.52196,-4.40662 4.037616,-7.032534 3.22425,-5.586102 5.64013,-10.452279 6.98279,-14.065043 1.5579,-4.191827 1.30039,-6.997989 -0.70785,-7.713778 -0.9464,-0.337318 -2.49918,0.04188 -3.18003,0.776479 -1.79296,1.934629 -6.557106,15.905529 -7.601946,22.292719 -0.26198,1.601525 -1.03131,7.400835 -1.03562,7.80675 -0.005,0.474306 0.30597,0.0476 1.50504,-2.064593 z M 123.89983,34.64821 c -1.41753,-0.366739 -2.56301,-1.267016 -3.2738,-2.572976 -1.50445,-2.764124 -0.56757,-6.369006 2.09385,-8.056845 1.6695,-1.058752 2.95241,-1.351977 5.24161,-1.19795 2.69248,0.181054 4.39523,1.105706 5.3332,2.895882 0.56301,1.074543 0.48809,3.931769 -0.14022,5.352422 -0.55289,1.249874 -2.03296,2.658145 -3.39248,3.22792 -1.06135,0.44478 -4.66608,0.660953 -5.86205,0.351547 z"
       id="path9" />
  </g>
</svg>
